{
  "asset": {
    "generator": "gltfeditor.com",
    "version": "2.0"
  },
  "buffers": [
    {
      "uri": "data:application/octet-stream;base64,",
      "byteLength": 4760
    },
    {
      "uri": "data:application/octet-stream;base64,",
      "byteLength": 1680
    },
    {
      "uri": "data:application/octet-stream;base64,",
      "byteLength": 1680
    },
    {
      "uri": "data:application/octet-stream;base64,",
      "byteLength": 7296
    },
    {
      "uri": "data:application/octet-stream;base64,",
      "byteLength": 7296
    }
  ],
  "bufferViews": [
    {
      "buffer": 0,
      "byteOffset": 0,
      "byteLength": 1632,
      "byteStride": 12,
      "target": 34962
    },
    {
      "buffer": 0,
      "byteOffset": 1632,
      "byteLength": 1632,
      "byteStride": 12,
      "target": 34962
    },
    {
      "buffer": 0,
      "byteOffset": 3264,
      "byteLength": 1088,
      "byteStride": 8,
      "target": 34962
    },
    {
      "buffer": 0,
      "byteOffset": 4352,
      "byteLength": 408,
      "target": 34963
    },
    {
      "buffer": 1,
      "byteOffset": 0,
      "byteLength": 576,
      "byteStride": 12,
      "target": 34962
    },
    {
      "buffer": 1,
      "byteOffset": 576,
      "byteLength": 576,
      "byteStride": 12,
      "target": 34962
    },
    {
      "buffer": 1,
      "byteOffset": 1152,
      "byteLength": 384,
      "byteStride": 8,
      "target": 34962
    },
    {
      "buffer": 1,
      "byteOffset": 1536,
      "byteLength": 144,
      "target": 34963
    },
    {
      "buffer": 2,
      "byteOffset": 0,
      "byteLength": 576,
      "byteStride": 12,
      "target": 34962
    },
    {
      "buffer": 2,
      "byteOffset": 576,
      "byteLength": 576,
      "byteStride": 12,
      "target": 34962
    },
    {
      "buffer": 2,
      "byteOffset": 1152,
      "byteLength": 384,
      "byteStride": 8,
      "target": 34962
    },
    {
      "buffer": 2,
      "byteOffset": 1536,
      "byteLength": 144,
      "target": 34963
    },
    {
      "buffer": 3,
      "byteOffset": 0,
      "byteLength": 2448,
      "byteStride": 12,
      "target": 34962
    },
    {
      "buffer": 3,
      "byteOffset": 2448,
      "byteLength": 2448,
      "byteStride": 12,
      "target": 34962
    },
    {
      "buffer": 3,
      "byteOffset": 4896,
      "byteLength": 1632,
      "byteStride": 8,
      "target": 34962
    },
    {
      "buffer": 3,
      "byteOffset": 6528,
      "byteLength": 768,
      "target": 34963
    },
    {
      "buffer": 4,
      "byteOffset": 0,
      "byteLength": 2448,
      "byteStride": 12,
      "target": 34962
    },
    {
      "buffer": 4,
      "byteOffset": 2448,
      "byteLength": 2448,
      "byteStride": 12,
      "target": 34962
    },
    {
      "buffer": 4,
      "byteOffset": 4896,
      "byteLength": 1632,
      "byteStride": 8,
      "target": 34962
    },
    {
      "buffer": 4,
      "byteOffset": 6528,
      "byteLength": 768,
      "target": 34963
    }
  ],
  "accessors": [
    {
      "bufferView": 0,
      "byteOffset": 0,
      "componentType": 5126,
      "normalized": false,
      "count": 136,
      "min": [
        -1.4940170049667358,
        -0.002512216567993164,
        -1
      ],
      "max": [
        1.4931540489196777,
        0.2068246603012085,
        1
      ],
      "type": "VEC3"
    },
    {
      "bufferView": 1,
      "byteOffset": 0,
      "componentType": 5126,
      "normalized": false,
      "count": 136,
      "min": [
        -1,
        -0.9999999403953552,
        -1
      ],
      "max": [
        1,
        0.9999999403953552,
        1
      ],
      "type": "VEC3"
    },
    {
      "bufferView": 2,
      "byteOffset": 0,
      "componentType": 5126,
      "normalized": false,
      "count": 136,
      "min": [
        0,
        0.12540477514266968
      ],
      "max": [
        1,
        1
      ],
      "type": "VEC2"
    },
    {
      "bufferView": 3,
      "byteOffset": 0,
      "componentType": 5123,
      "normalized": false,
      "count": 204,
      "min": [
        0
      ],
      "max": [
        135
      ],
      "type": "SCALAR"
    },
    {
      "bufferView": 4,
      "byteOffset": 0,
      "componentType": 5126,
      "normalized": false,
      "count": 48,
      "min": [
        0.009059548377990723,
        -0.9941737055778503,
        -0.9943875074386597
      ],
      "max": [
        0.2323683500289917,
        -0.0010991096496582031,
        0.9943875074386597
      ],
      "type": "VEC3"
    },
    {
      "bufferView": 5,
      "byteOffset": 0,
      "componentType": 5126,
      "normalized": false,
      "count": 48,
      "min": [
        -1,
        -0.9999999403953552,
        -1
      ],
      "max": [
        1,
        0.9999999403953552,
        1
      ],
      "type": "VEC3"
    },
    {
      "bufferView": 6,
      "byteOffset": 0,
      "componentType": 5126,
      "normalized": false,
      "count": 48,
      "min": [
        0,
        0
      ],
      "max": [
        1,
        1
      ],
      "type": "VEC2"
    },
    {
      "bufferView": 7,
      "byteOffset": 0,
      "componentType": 5123,
      "normalized": false,
      "count": 72,
      "min": [
        0
      ],
      "max": [
        47
      ],
      "type": "SCALAR"
    },
    {
      "bufferView": 8,
      "byteOffset": 0,
      "componentType": 5126,
      "normalized": false,
      "count": 48,
      "min": [
        -0.22990477085113525,
        -0.9941737651824951,
        -0.9943875074386597
      ],
      "max": [
        -0.006595969200134277,
        -0.0010991692543029785,
        0.9943875074386597
      ],
      "type": "VEC3"
    },
    {
      "bufferView": 9,
      "byteOffset": 0,
      "componentType": 5126,
      "normalized": false,
      "count": 48,
      "min": [
        -1,
        -0.9999999403953552,
        -1
      ],
      "max": [
        1,
        0.9999999403953552,
        1
      ],
      "type": "VEC3"
    },
    {
      "bufferView": 10,
      "byteOffset": 0,
      "componentType": 5126,
      "normalized": false,
      "count": 48,
      "min": [
        0,
        0
      ],
      "max": [
        1,
        1
      ],
      "type": "VEC2"
    },
    {
      "bufferView": 11,
      "byteOffset": 0,
      "componentType": 5123,
      "normalized": false,
      "count": 72,
      "min": [
        0
      ],
      "max": [
        47
      ],
      "type": "SCALAR"
    },
    {
      "bufferView": 12,
      "byteOffset": 0,
      "componentType": 5126,
      "normalized": false,
      "count": 204,
      "min": [
        0.0120009183883667,
        -0.9991040825843811,
        -1.0000253915786743
      ],
      "max": [
        0.140738844871521,
        0.0010953545570373535,
        0.9999746680259705
      ],
      "type": "VEC3"
    },
    {
      "bufferView": 13,
      "byteOffset": 0,
      "componentType": 5126,
      "normalized": false,
      "count": 204,
      "min": [
        -1,
        -1,
        -1
      ],
      "max": [
        1,
        1,
        1
      ],
      "type": "VEC3"
    },
    {
      "bufferView": 14,
      "byteOffset": 0,
      "componentType": 5126,
      "normalized": false,
      "count": 204,
      "min": [
        0,
        0
      ],
      "max": [
        1,
        1
      ],
      "type": "VEC2"
    },
    {
      "bufferView": 15,
      "byteOffset": 0,
      "componentType": 5123,
      "normalized": false,
      "count": 384,
      "min": [
        0
      ],
      "max": [
        203
      ],
      "type": "SCALAR"
    },
    {
      "bufferView": 16,
      "byteOffset": 0,
      "componentType": 5126,
      "normalized": false,
      "count": 204,
      "min": [
        -0.1407395601272583,
        -1.0015676021575928,
        -1.0000253915786743
      ],
      "max": [
        -0.012001633644104004,
        -0.001368105411529541,
        0.9999746680259705
      ],
      "type": "VEC3"
    },
    {
      "bufferView": 17,
      "byteOffset": 0,
      "componentType": 5126,
      "normalized": false,
      "count": 204,
      "min": [
        -1,
        -1,
        -1
      ],
      "max": [
        1,
        1,
        1
      ],
      "type": "VEC3"
    },
    {
      "bufferView": 18,
      "byteOffset": 0,
      "componentType": 5126,
      "normalized": false,
      "count": 204,
      "min": [
        0,
        0
      ],
      "max": [
        1,
        1
      ],
      "type": "VEC2"
    },
    {
      "bufferView": 19,
      "byteOffset": 0,
      "componentType": 5123,
      "normalized": false,
      "count": 384,
      "min": [
        0
      ],
      "max": [
        203
      ],
      "type": "SCALAR"
    }
  ],
  "scene": 0,
  "scenes": [
    {
      "nodes": [
        0,
        1,
        2,
        3,
        4,
        5,
        6
      ],
      "name": "Scene"
    }
  ],
  "nodes": [
    {
      "name": "Plate",
      "mesh": 0
    },
    {
      "name": "Legs01Left",
      "matrix": [
        1,
        0,
        0,
        0,
        0,
        1,
        0,
        0,
        0,
        0,
        1,
        0,
        -1.5,
        0,
        0,
        1
      ],
      "mesh": 1
    },
    {
      "name": "Legs01Right",
      "matrix": [
        1,
        0,
        0,
        0,
        0,
        1,
        0,
        0,
        0,
        0,
        1,
        0,
        1.5,
        0,
        0,
        1
      ],
      "mesh": 2
    },
    {
      "name": "Legs02Left",
      "matrix": [
        1,
        0,
        0,
        0,
        0,
        1,
        0,
        0,
        0,
        0,
        1,
        0,
        -1.5,
        0,
        0,
        1
      ],
      "mesh": 3
    },
    {
      "name": "Legs02Right",
      "matrix": [
        1,
        0,
        0,
        0,
        0,
        1,
        0,
        0,
        0,
        0,
        1,
        0,
        1.5,
        0,
        0,
        1
      ],
      "mesh": 4
    },
    {
      "name": "Legs03Left",
      "matrix": [
        1,
        0,
        0,
        0,
        0,
        1,
        0,
        0,
        0,
        0,
        1,
        0,
        -1.5,
        0,
        0,
        1
      ]
    },
    {
      "name": "Legs03Right",
      "matrix": [
        1,
        0,
        0,
        0,
        0,
        1,
        0,
        0,
        0,
        0,
        1,
        0,
        1.5,
        0,
        0,
        1
      ]
    }
  ],
  "meshes": [
    {
      "primitives": [
        {
          "material": 0,
          "mode": 4,
          "attributes": {
            "POSITION": 0,
            "NORMAL": 1,
            "TEXCOORD_0": 2
          },
          "indices": 3
        }
      ]
    },
    {
      "primitives": [
        {
          "material": 1,
          "mode": 4,
          "attributes": {
            "POSITION": 4,
            "NORMAL": 5,
            "TEXCOORD_0": 6
          },
          "indices": 7
        }
      ]
    },
    {
      "primitives": [
        {
          "material": 1,
          "mode": 4,
          "attributes": {
            "POSITION": 8,
            "NORMAL": 9,
            "TEXCOORD_0": 10
          },
          "indices": 11
        }
      ]
    },
    {
      "primitives": [
        {
          "material": 1,
          "mode": 4,
          "attributes": {
            "POSITION": 12,
            "NORMAL": 13,
            "TEXCOORD_0": 14
          },
          "indices": 15
        }
      ]
    },
    {
      "primitives": [
        {
          "material": 1,
          "mode": 4,
          "attributes": {
            "POSITION": 16,
            "NORMAL": 17,
            "TEXCOORD_0": 18
          },
          "indices": 19
        }
      ]
    }
  ],
  "materials": [
    {
      "name": "Plate",
      "pbrMetallicRoughness": {
        "baseColorFactor": [
          0.40784313725490196,
          0.40784313725490196,
          0.40784313725490196,
          1
        ],
        "metallicFactor": 0,
        "roughnessFactor": 1,
        "baseColorTexture": {
          "index": 0,
          "texCoord": 0
        },
        "metallicRoughnessTexture": {
          "index": 1,
          "texCoord": 0
        }
      },
      "emissiveFactor": [
        0,
        0,
        0
      ],
      "alphaMode": "OPAQUE",
      "doubleSided": true,
      "normalTexture": {
        "index": 2,
        "texCoord": 0,
        "scale": 1
      }
    },
    {
      "name": "Metal",
      "pbrMetallicRoughness": {
        "baseColorFactor": [
          0.03529411764705882,
          0.03529411764705882,
          0.03529411764705882,
          1
        ],
        "metallicFactor": 1,
        "roughnessFactor": 0
      },
      "emissiveFactor": [
        0,
        0,
        0
      ],
      "alphaMode": "OPAQUE",
      "doubleSided": true
    }
  ],
  "textures": [
    {
      "sampler": 0,
      "name": "base",
      "source": 0
    },
    {
      "sampler": 1,
      "name": "metallicRoughness",
      "source": 1
    },
    {
      "sampler": 2,
      "name": "normal",
      "source": 2
    }
  ],
  "samplers": [
    {
      "magFilter": 9729,
      "minFilter": 9987,
      "wrapS": 10497,
      "wrapT": 10497
    },
    {
      "magFilter": 9729,
      "minFilter": 9987,
      "wrapS": 10497,
      "wrapT": 10497
    },
    {
      "magFilter": 9729,
      "minFilter": 9987,
      "wrapS": 10497,
      "wrapT": 10497
    }
  ],
  "images": [
    {
      "uri": "data:image/jpeg;base64,",
      "mimeType": "image/jpeg"
    },
    {
      "uri": "data:image/jpeg;base64,",
      "mimeType": "image/jpeg"
    },
    {
      "uri": "data:image/jpeg;base64,",
      "mimeType": "image/jpeg"
    }
  ]
}